<svg xmlns="http://www.w3.org/2000/svg" version="1.1" height="200px" width="400px"> <g>
  <g fill="#f16102">
    <g>
      <g>
        <polygon points="51.22,57.56 66.24,57.56 66,60.54 61.49,60.54 61.49,97.09 66.06,97.09 65.88,100.07 51.43,100.07 51.25,97.09 56.35,97.09 56.35,60.54 51.4,60.54 51.22,57.56"></polygon>
        <path d="M107.71795,90.13219c-0.25569,1.14078 -0.56055,2.13896 -0.91459,2.99454c-0.35403,0.85558 -0.7179,1.58824 -1.09161,2.19796c-0.3737,0.60973 -0.73757,1.10636 -1.09161,1.4899c-0.35403,0.38354 -0.6589,0.67365 -0.91459,0.87033c-0.23602,0.19669 -0.66873,0.49171 -1.29813,0.88509c-0.62939,0.39337 -1.45056,0.78674 -2.46349,1.18012c-1.01293,0.39337 -2.22747,0.73757 -3.64361,1.0326c-1.41614,0.29503 -3.0388,0.44254 -4.86797,0.44254c-1.94719,0 -3.68786,-0.16718 -5.22201,-0.50155c-1.53415,-0.33437 -2.8667,-0.74249 -3.99764,-1.22437c-1.13094,-0.48188 -2.07012,-0.98835 -2.81752,-1.5194c-0.74741,-0.53105 -1.32763,-0.99326 -1.74067,-1.38664c-0.70807,-0.66873 -1.3768,-1.5489 -2.0062,-2.64051c-0.62939,-1.09161 -1.18503,-2.36515 -1.66691,-3.82062c-0.48188,-1.45548 -0.86542,-3.08305 -1.15061,-4.88273c-0.28519,-1.79968 -0.42779,-3.73211 -0.42779,-5.79732c0,-2.55692 0.16227,-4.80405 0.4868,-6.74141c0.32453,-1.93736 0.73265,-3.60427 1.22437,-5.00074c0.49171,-1.39647 1.01293,-2.55692 1.56365,-3.48134c0.55072,-0.92442 1.05227,-1.65216 1.50465,-2.18321c0.45238,-0.53105 1.08669,-1.11128 1.90294,-1.74067c0.81625,-0.62939 1.81443,-1.21454 2.99454,-1.75542c1.18012,-0.54089 2.552,-0.99326 4.11565,-1.35713c1.56365,-0.36387 3.31907,-0.5458 5.26626,-0.5458c1.90785,0 3.58952,0.15735 5.04499,0.47205c1.45548,0.3147 2.70443,0.6884 3.74687,1.12111c1.04243,0.43271 1.88327,0.86542 2.5225,1.29813c0.63923,0.43271 1.07685,0.76707 1.31288,1.0031c0.23602,0.23602 0.5163,0.56055 0.84083,0.97359c0.32453,0.41304 0.64906,0.92442 0.97359,1.53415c0.32453,0.60973 0.63431,1.30796 0.92934,2.0947c0.29503,0.78674 0.54089,1.662 0.73757,2.62576L103.26302,69.98172c-0.39337,-1.80951 -0.89984,-3.28957 -1.5194,-4.44018c-0.61956,-1.15061 -1.24404,-1.9226 -1.87343,-2.31598c-0.15735,-0.09834 -0.43763,-0.26553 -0.84083,-0.50155c-0.40321,-0.23602 -0.94901,-0.47696 -1.63741,-0.72282c-0.6884,-0.24586 -1.5194,-0.46221 -2.49299,-0.64906c-0.97359,-0.18685 -2.08979,-0.28028 -3.34858,-0.28028c-1.41614,0 -2.67493,0.11309 -3.77637,0.33928c-1.10144,0.22619 -2.06028,0.50647 -2.87653,0.84083c-0.81625,0.33437 -1.49973,0.69332 -2.05045,1.07685c-0.55072,0.38354 -0.98343,0.72282 -1.29813,1.01785c-0.41304,0.39337 -0.84575,0.96376 -1.29813,1.71117c-0.45238,0.74741 -0.86542,1.71117 -1.23912,2.89128c-0.3737,1.18012 -0.68348,2.60117 -0.92934,4.26317c-0.24586,1.662 -0.36879,3.59443 -0.36879,5.79732c0,2.18321 0.11309,4.08615 0.33928,5.70881c0.22619,1.62266 0.50155,3.00438 0.82608,4.14515c0.32453,1.14078 0.67857,2.05537 1.0621,2.74377c0.38354,0.6884 0.72282,1.20962 1.01785,1.56365c0.41304,0.47205 0.94901,0.92934 1.60791,1.37188c0.6589,0.44254 1.43089,0.831 2.31598,1.16536c0.88509,0.33437 1.87343,0.60481 2.96504,0.81133c1.09161,0.20652 2.28647,0.30978 3.5846,0.30978c1.3178,0 2.50283,-0.10326 3.5551,-0.30978c1.05227,-0.20652 1.96686,-0.45729 2.74377,-0.75232c0.77691,-0.29503 1.42106,-0.60481 1.93244,-0.92934c0.51138,-0.32453 0.88509,-0.60481 1.12111,-0.84083c0.11801,-0.11801 0.29011,-0.32453 0.5163,-0.61956c0.22619,-0.29503 0.47205,-0.69332 0.73757,-1.19487c0.26553,-0.50155 0.53597,-1.11128 0.81133,-1.82918c0.27536,-0.7179 0.52122,-1.56857 0.73757,-2.552L107.71795,90.13219z"></path>
        <polygon points="113.21,57.56 128.22,57.56 127.99,60.54 123.47,60.54 123.47,97.09 128.05,97.09 127.87,100.07 113.41,100.07 113.23,97.09 118.34,97.09 118.34,60.54 113.38,60.54 113.21,57.56"></polygon>
        <polygon points="136.57,100.07 136.57,57.56 141.71,57.56 141.71,95.86 160.44,95.86 160.44,100.07 136.57,100.07"></polygon>
        <polygon points="161.68,82.23 178.17,82.23 178.17,86.09 161.68,86.09 161.68,82.23"></polygon>
        <polygon points="184.1,57.56 199.12,57.56 198.88,60.54 194.37,60.54 194.37,97.09 198.94,97.09 198.76,100.07 184.31,100.07 184.13,97.09 189.23,97.09 189.23,60.54 184.28,60.54 184.1,57.56"></polygon>
        <path d="M240.59891,90.13219c-0.25569,1.14078 -0.56055,2.13896 -0.91459,2.99454c-0.35403,0.85558 -0.7179,1.58824 -1.09161,2.19796c-0.3737,0.60973 -0.73757,1.10636 -1.09161,1.4899c-0.35403,0.38354 -0.6589,0.67365 -0.91459,0.87033c-0.23602,0.19669 -0.66873,0.49171 -1.29813,0.88509c-0.62939,0.39337 -1.45056,0.78674 -2.46349,1.18012c-1.01293,0.39337 -2.22747,0.73757 -3.64361,1.0326c-1.41614,0.29503 -3.0388,0.44254 -4.86797,0.44254c-1.94719,0 -3.68786,-0.16718 -5.22201,-0.50155c-1.53415,-0.33437 -2.8667,-0.74249 -3.99764,-1.22437c-1.13094,-0.48188 -2.07012,-0.98835 -2.81752,-1.5194c-0.74741,-0.53105 -1.32763,-0.99326 -1.74067,-1.38664c-0.70807,-0.66873 -1.3768,-1.5489 -2.0062,-2.64051c-0.62939,-1.09161 -1.18503,-2.36515 -1.66691,-3.82062c-0.48188,-1.45548 -0.86542,-3.08305 -1.15061,-4.88273c-0.28519,-1.79968 -0.42779,-3.73211 -0.42779,-5.79732c0,-2.55692 0.16227,-4.80405 0.4868,-6.74141c0.32453,-1.93736 0.73265,-3.60427 1.22437,-5.00074c0.49171,-1.39647 1.01293,-2.55692 1.56365,-3.48134c0.55072,-0.92442 1.05227,-1.65216 1.50465,-2.18321c0.45238,-0.53105 1.08669,-1.11128 1.90294,-1.74067c0.81625,-0.62939 1.81443,-1.21454 2.99454,-1.75542c1.18012,-0.54089 2.552,-0.99326 4.11565,-1.35713c1.56365,-0.36387 3.31907,-0.5458 5.26626,-0.5458c1.90785,0 3.58952,0.15735 5.04499,0.47205c1.45548,0.3147 2.70443,0.6884 3.74687,1.12111c1.04243,0.43271 1.88327,0.86542 2.5225,1.29813c0.63923,0.43271 1.07685,0.76707 1.31288,1.0031c0.23602,0.23602 0.5163,0.56055 0.84083,0.97359c0.32453,0.41304 0.64906,0.92442 0.97359,1.53415c0.32453,0.60973 0.63431,1.30796 0.92934,2.0947c0.29503,0.78674 0.54089,1.662 0.73757,2.62576L236.14397,69.98172c-0.39337,-1.80951 -0.89984,-3.28957 -1.5194,-4.44018c-0.61956,-1.15061 -1.24404,-1.9226 -1.87343,-2.31598c-0.15735,-0.09834 -0.43763,-0.26553 -0.84083,-0.50155c-0.40321,-0.23602 -0.94901,-0.47696 -1.63741,-0.72282c-0.6884,-0.24586 -1.5194,-0.46221 -2.49299,-0.64906c-0.97359,-0.18685 -2.08979,-0.28028 -3.34858,-0.28028c-1.41614,0 -2.67493,0.11309 -3.77637,0.33928c-1.10144,0.22619 -2.06028,0.50647 -2.87653,0.84083c-0.81625,0.33437 -1.49973,0.69332 -2.05045,1.07685c-0.55072,0.38354 -0.98343,0.72282 -1.29813,1.01785c-0.41304,0.39337 -0.84575,0.96376 -1.29813,1.71117c-0.45238,0.74741 -0.86542,1.71117 -1.23912,2.89128c-0.3737,1.18012 -0.68348,2.60117 -0.92934,4.26317c-0.24586,1.662 -0.36879,3.59443 -0.36879,5.79732c0,2.18321 0.11309,4.08615 0.33928,5.70881c0.22619,1.62266 0.50155,3.00438 0.82608,4.14515c0.32453,1.14078 0.67857,2.05537 1.0621,2.74377c0.38354,0.6884 0.72282,1.20962 1.01785,1.56365c0.41304,0.47205 0.94901,0.92934 1.60791,1.37188c0.6589,0.44254 1.43089,0.831 2.31598,1.16536c0.88509,0.33437 1.87343,0.60481 2.96504,0.81133c1.09161,0.20652 2.28647,0.30978 3.5846,0.30978c1.3178,0 2.50283,-0.10326 3.5551,-0.30978c1.05227,-0.20652 1.96686,-0.45729 2.74377,-0.75232c0.77691,-0.29503 1.42106,-0.60481 1.93244,-0.92934c0.51138,-0.32453 0.88509,-0.60481 1.12111,-0.84083c0.11801,-0.11801 0.29011,-0.32453 0.5163,-0.61956c0.22619,-0.29503 0.47205,-0.69332 0.73757,-1.19487c0.26553,-0.50155 0.53597,-1.11128 0.81133,-1.82918c0.27536,-0.7179 0.52122,-1.56857 0.73757,-2.552L240.59891,90.13219z"></path>
        <path x="0" y="0" d="M262.81457,60.86534L254.40625,85.26421L271.07538,85.26421z M259.83478,57.56101L265.76486,57.56101L281.72592,100.07466L276.53341,100.07466L272.52102,89.2471L252.99012,89.2471L249.00723,100.07466L243.78522,100.07466L259.83478,57.56101z"></path>
        <polygon points="287.98,57.56 312.44,57.56 311.52,61.87 293.11,61.87 293.11,75.91 309.28,75.91 309.28,80.22 293.11,80.22 293.11,100.07 287.98,100.07 287.98,57.56"></polygon>
        <path x="0" y="0" d="M330.96622,60.86534L322.5579,85.26421L339.22702,85.26421z M327.98643,57.56101L333.91651,57.56101L349.87756,100.07466L344.68506,100.07466L340.67267,89.2471L321.14176,89.2471L317.15887,100.07466L311.93686,100.07466L327.98643,57.56101z"></path>
        <polygon points="356.13,100.07 356.13,57.56 361.27,57.56 361.27,95.86 380,95.86 380,100.07 356.13,100.07"></polygon>
      </g>
      <g>
        <polygon points="51.22,107.91 51.22,105.86 380,105.86 380,109.97 51.22,109.97 51.22,107.91"></polygon>
      </g>
    </g>
    <g>
      <path x="0" y="0" d="M23.0801,119.54475L23.0801,129.61704L26.31952,129.61704c1.0031,0 1.86163,-0.0236 2.5756,-0.07081c0.71397,-0.0472 1.31878,-0.11506 1.81443,-0.20357c0.49565,-0.08851 0.90279,-0.20062 1.22142,-0.33633c0.31863,-0.13571 0.59596,-0.29798 0.83198,-0.4868c0.17702,-0.14161 0.34813,-0.30683 0.51335,-0.49565c0.16522,-0.18882 0.31273,-0.42779 0.44254,-0.71692c0.12981,-0.28913 0.23307,-0.64906 0.30978,-1.07981c0.07671,-0.43074 0.11506,-0.95884 0.11506,-1.5843c0,-0.64906 -0.0413,-1.20077 -0.12391,-1.65511c-0.08261,-0.45434 -0.19472,-0.84083 -0.33633,-1.15946c-0.14161,-0.31863 -0.30388,-0.58121 -0.4868,-0.78773c-0.18292,-0.20652 -0.37469,-0.38649 -0.57531,-0.5399c-0.16522,-0.11801 -0.35994,-0.23602 -0.58416,-0.35403c-0.22422,-0.11801 -0.51335,-0.22127 -0.86738,-0.30978c-0.35403,-0.08851 -0.78773,-0.15932 -1.30108,-0.21242c-0.51335,-0.05311 -1.14766,-0.07966 -1.90294,-0.07966z M20,116.99571L26.54964,116.99571c1.23912,0 2.31893,0.03835 3.23942,0.11506c0.92049,0.07671 1.72592,0.19177 2.41629,0.34518c0.69037,0.15341 1.27747,0.34813 1.76132,0.58416c0.48385,0.23602 0.90279,0.51925 1.25682,0.84968c0.25963,0.23602 0.5163,0.51925 0.77003,0.84968c0.25372,0.33043 0.48385,0.72577 0.69037,1.18602c0.20652,0.46024 0.37469,0.9913 0.5045,1.59316c0.12981,0.60186 0.19472,1.29223 0.19472,2.0711c0,0.77888 -0.06491,1.46924 -0.19472,2.0711c-0.12981,0.60186 -0.30093,1.12701 -0.51335,1.57545c-0.21242,0.44844 -0.44844,0.83493 -0.70807,1.15946c-0.25963,0.32453 -0.51925,0.59891 -0.77888,0.82313c-0.28323,0.24782 -0.62841,0.48385 -1.03555,0.70807c-0.40714,0.22422 -0.90574,0.42484 -1.4958,0.60186c-0.59006,0.17702 -1.28928,0.31568 -2.09765,0.41599c-0.80838,0.10031 -1.74952,0.15046 -2.82343,0.15046L23.0801,132.09528L23.0801,142.50389L20,142.50389L20,116.99571z"></path>
      <path x="0" y="0" d="M56.07612,127.58134c0.36584,-0.40124 0.60481,-0.89984 0.71692,-1.4958c0.11211,-0.59596 0.16817,-1.30108 0.16817,-2.11536c0,-0.83788 -0.07966,-1.543 -0.23897,-2.11536c-0.15932,-0.57236 -0.44549,-1.02965 -0.85853,-1.37188c-0.49565,-0.41304 -1.17716,-0.67857 -2.04455,-0.79658c-0.86738,-0.11801 -1.95014,-0.17702 -3.24827,-0.17702L45.13645,119.50935L45.13645,128.78506L50.03983,128.78506c0.40124,0 0.79068,0 1.16831,0c0.37764,0 0.73757,-0.0059 1.07981,-0.0177c0.90869,-0.0236 1.66691,-0.12981 2.27467,-0.31863c0.60776,-0.18882 1.11226,-0.47795 1.5135,-0.86738z M42.05635,116.99571L49.93362,116.99571c0.55465,0 1.09161,0.0059 1.61086,0.0177c0.51925,0.0118 1.0267,0.0295 1.52235,0.05311c1.0031,0.05901 1.91474,0.19767 2.73492,0.41599c0.82018,0.21832 1.5194,0.5517 2.09765,1.00015c0.76707,0.57826 1.32763,1.32763 1.68166,2.24812c0.35403,0.92049 0.53105,1.99439 0.53105,3.22171c0,1.35713 -0.15341,2.49889 -0.46024,3.42528c-0.30683,0.92639 -0.82018,1.67281 -1.54005,2.23927c-0.55465,0.41304 -1.23322,0.73167 -2.0357,0.95589c-0.80248,0.22422 -1.74067,0.37174 -2.81457,0.44254c0.29503,0.21242 0.59596,0.47205 0.90279,0.77888c0.27143,0.25963 0.56055,0.57236 0.86738,0.93819c0.30683,0.36584 0.60776,0.78478 0.90279,1.25682L60.85558,142.14986L58.16492,143.22966c-0.80248,-1.33353 -1.5784,-2.63166 -2.32778,-3.89438c-0.74937,-1.26272 -1.45449,-2.42514 -2.11536,-3.48724c-0.66086,-1.0621 -1.26567,-1.98554 -1.81443,-2.77032c-0.54875,-0.78478 -1.01785,-1.37188 -1.40729,-1.76132L45.13645,131.3164L45.13645,142.50389L42.05635,142.50389L42.05635,116.99571z"></path>
      <path x="0" y="0" d="M75.95516,119.06681c-0.89689,0 -1.70527,0.07081 -2.42514,0.21242c-0.71987,0.14161 -1.35123,0.32158 -1.89408,0.5399c-0.54285,0.21832 -1.00015,0.45729 -1.37188,0.71692c-0.37174,0.25963 -0.65201,0.50745 -0.84083,0.74347c-0.20062,0.24782 -0.40714,0.57531 -0.61956,0.98245c-0.21242,0.40714 -0.40714,0.94114 -0.58416,1.60201c-0.17702,0.66086 -0.32453,1.46924 -0.44254,2.42514c-0.11801,0.95589 -0.17702,2.10651 -0.17702,3.45184c0,1.38073 0.05901,2.56085 0.17702,3.54035c0.11801,0.9795 0.26848,1.80558 0.45139,2.47824c0.18292,0.67267 0.38059,1.21552 0.59301,1.62856c0.21242,0.41304 0.41894,0.73757 0.61956,0.97359c0.18882,0.23602 0.46615,0.48385 0.83198,0.74347c0.36584,0.25963 0.82018,0.49565 1.36303,0.70807c0.54285,0.21242 1.16831,0.38944 1.87638,0.53105c0.70807,0.14161 1.50465,0.21242 2.38973,0.21242c0.88509,0 1.68756,-0.07081 2.40743,-0.21242c0.71987,-0.14161 1.35123,-0.32158 1.89408,-0.5399c0.54285,-0.21832 0.9972,-0.45729 1.36303,-0.71692c0.36584,-0.25963 0.64906,-0.51335 0.84968,-0.76117c0.18882,-0.24782 0.39239,-0.57826 0.61071,-0.9913c0.21832,-0.41304 0.41894,-0.96179 0.60186,-1.64626c0.18292,-0.68447 0.33338,-1.52235 0.45139,-2.51365c0.11801,-0.9913 0.17702,-2.18321 0.17702,-3.57575c0,-1.32173 -0.05901,-2.45464 -0.17702,-3.39873c-0.11801,-0.94409 -0.26848,-1.74362 -0.45139,-2.39858c-0.18292,-0.65496 -0.38059,-1.18307 -0.59301,-1.5843c-0.21242,-0.40124 -0.41304,-0.71987 -0.60186,-0.95589c-0.18882,-0.23602 -0.46615,-0.48385 -0.83198,-0.74347c-0.36584,-0.25963 -0.82018,-0.49565 -1.36303,-0.70807c-0.54285,-0.21242 -1.17126,-0.38944 -1.88523,-0.53105c-0.71397,-0.14161 -1.5135,-0.21242 -2.39858,-0.21242z M64.43133,129.63474c0,-1.53415 0.09146,-2.86473 0.27438,-3.99174c0.18292,-1.12701 0.41009,-2.0888 0.68152,-2.88538c0.27143,-0.79658 0.56646,-1.44859 0.88509,-1.95604c0.31863,-0.50745 0.61366,-0.91459 0.88509,-1.22142c0.27143,-0.29503 0.64611,-0.62546 1.12406,-0.9913c0.47795,-0.36584 1.0739,-0.70807 1.78787,-1.0267c0.71397,-0.31863 1.55775,-0.58416 2.53135,-0.79658c0.97359,-0.21242 2.09175,-0.31863 3.35448,-0.31863c1.26272,0 2.37793,0.10916 3.34563,0.32748c0.96769,0.21832 1.80853,0.4868 2.5225,0.80543c0.71397,0.31863 1.30993,0.66086 1.78787,1.0267c0.47795,0.36584 0.85263,0.69627 1.12406,0.9913c0.27143,0.30683 0.5635,0.71102 0.87624,1.21257c0.31273,0.50155 0.60481,1.15061 0.87624,1.94719c0.27143,0.79658 0.49565,1.75542 0.67267,2.87653c0.17702,1.12111 0.26553,2.44874 0.26553,3.98289c0,1.75837 -0.10916,3.26302 -0.32748,4.51394c-0.21832,1.25092 -0.48975,2.30122 -0.81428,3.15091c-0.32453,0.84968 -0.67857,1.52825 -1.0621,2.0357c-0.38354,0.50745 -0.73462,0.89689 -1.05325,1.16831c-0.31863,0.27143 -0.72577,0.5635 -1.22142,0.87624c-0.49565,0.31273 -1.08276,0.60481 -1.76132,0.87624c-0.67857,0.27143 -1.45744,0.49565 -2.33663,0.67267c-0.87919,0.17702 -1.86163,0.26553 -2.94734,0.26553c-1.27452,0 -2.39858,-0.10621 -3.37218,-0.31863c-0.97359,-0.21242 -1.81738,-0.47795 -2.53135,-0.79658c-0.71397,-0.31863 -1.30698,-0.66086 -1.77902,-1.0267c-0.47205,-0.36584 -0.84378,-0.70217 -1.11521,-1.009c-0.27143,-0.30683 -0.5635,-0.71987 -0.87624,-1.23912c-0.31273,-0.51925 -0.60186,-1.19192 -0.86738,-2.018c-0.26553,-0.82608 -0.4868,-1.82033 -0.66381,-2.98274c-0.17702,-1.16241 -0.26553,-2.5461 -0.26553,-4.15105z"></path>
      <path d="M97.79909,131.90056c-1.16831,-1.94719 -2.29532,-3.84718 -3.38103,-5.69996c-0.46024,-0.79068 -0.93524,-1.60496 -1.42499,-2.44284c-0.48975,-0.83788 -0.96474,-1.66101 -1.42499,-2.46939c-0.46024,-0.80838 -0.89689,-1.5784 -1.30993,-2.31008c-0.41304,-0.73167 -0.77298,-1.39254 -1.07981,-1.98259L92.47087,116.99571c0.20062,0.37764 0.43369,0.80838 0.69922,1.29223c0.26553,0.48385 0.54875,0.9972 0.84968,1.54005c0.30093,0.54285 0.60776,1.10046 0.92049,1.67281c0.31273,0.57236 0.62251,1.12406 0.92934,1.65511c0.70807,1.25092 1.44564,2.55495 2.21272,3.91208L99.37454,129.40462L100.64906,127.06799c0.75527,-1.35713 1.49285,-2.66116 2.21272,-3.91208c0.29503,-0.53105 0.60481,-1.08276 0.92934,-1.65511c0.32453,-0.57236 0.64021,-1.12996 0.94704,-1.67281c0.30683,-0.54285 0.59596,-1.0562 0.86738,-1.54005c0.27143,-0.48385 0.50745,-0.91459 0.70807,-1.29223L109.64154,116.99571c-0.31863,0.57826 -0.68742,1.23617 -1.10636,1.97374c-0.41894,0.73757 -0.86443,1.5076 -1.33648,2.31008c-0.47205,0.80248 -0.95294,1.62266 -1.44269,2.46054c-0.48975,0.83788 -0.97064,1.64626 -1.44269,2.42514c-1.09751,1.84098 -2.24222,3.73506 -3.43413,5.68225L100.87919,142.50389L97.79909,142.50389L97.79909,131.90056z"></path>
      <polygon points="112.86,117 128.09,117 127.7,119.51 115.94,119.51 115.94,127.92 126.74,127.92 126.74,130.36 115.94,130.36 115.94,139.97 127.73,139.97 128.14,142.5 112.86,142.5 112.86,117"></polygon>
      <path d="M153.3471,136.53841c-0.15341,0.68447 -0.33633,1.28338 -0.54875,1.79673c-0.21242,0.51335 -0.43074,0.95294 -0.65496,1.31878c-0.22422,0.36584 -0.44254,0.66381 -0.65496,0.89394c-0.21242,0.23012 -0.39534,0.40419 -0.54875,0.5222c-0.14161,0.11801 -0.40124,0.29503 -0.77888,0.53105c-0.37764,0.23602 -0.87033,0.47205 -1.47809,0.70807c-0.60776,0.23602 -1.33648,0.44254 -2.18616,0.61956c-0.84968,0.17702 -1.82328,0.26553 -2.92078,0.26553c-1.16831,0 -2.21272,-0.10031 -3.13321,-0.30093c-0.92049,-0.20062 -1.72002,-0.44549 -2.39858,-0.73462c-0.67857,-0.28913 -1.24207,-0.59301 -1.69051,-0.91164c-0.44844,-0.31863 -0.79658,-0.59596 -1.0444,-0.83198c-0.42484,-0.40124 -0.82608,-0.92934 -1.20372,-1.5843c-0.37764,-0.65496 -0.71102,-1.41909 -1.00015,-2.29237c-0.28913,-0.87329 -0.51925,-1.84983 -0.69037,-2.92964c-0.17112,-1.07981 -0.25668,-2.23927 -0.25668,-3.47839c0,-1.53415 0.09736,-2.88243 0.29208,-4.04484c0.19472,-1.16241 0.43959,-2.16256 0.73462,-3.00044c0.29503,-0.83788 0.60776,-1.53415 0.93819,-2.0888c0.33043,-0.55465 0.63136,-0.9913 0.90279,-1.30993c0.27143,-0.31863 0.65201,-0.66677 1.14176,-1.0444c0.48975,-0.37764 1.08866,-0.72872 1.79673,-1.05325c0.70807,-0.32453 1.5312,-0.59596 2.46939,-0.81428c0.93819,-0.21832 1.99144,-0.32748 3.15976,-0.32748c1.14471,0 2.15371,0.09441 3.027,0.28323c0.87329,0.18882 1.62266,0.41304 2.24812,0.67267c0.62546,0.25963 1.12996,0.51925 1.5135,0.77888c0.38354,0.25963 0.64611,0.46024 0.78773,0.60186c0.14161,0.14161 0.30978,0.33633 0.5045,0.58416c0.19472,0.24782 0.38944,0.55465 0.58416,0.92049c0.19472,0.36584 0.38059,0.78478 0.5576,1.25682c0.17702,0.47205 0.32453,0.9972 0.44254,1.57545L150.67414,124.44813c-0.23602,-1.08571 -0.5399,-1.97374 -0.91164,-2.66411c-0.37174,-0.69037 -0.74642,-1.15356 -1.12406,-1.38959c-0.09441,-0.05901 -0.26258,-0.15932 -0.5045,-0.30093c-0.24192,-0.14161 -0.56941,-0.28618 -0.98245,-0.43369c-0.41304,-0.14751 -0.91164,-0.27733 -1.4958,-0.38944c-0.58416,-0.11211 -1.25387,-0.16817 -2.00915,-0.16817c-0.84968,0 -1.60496,0.06786 -2.26582,0.20357c-0.66086,0.13571 -1.23617,0.30388 -1.72592,0.5045c-0.48975,0.20062 -0.89984,0.41599 -1.23027,0.64611c-0.33043,0.23012 -0.59006,0.43369 -0.77888,0.61071c-0.24782,0.23602 -0.50745,0.57826 -0.77888,1.0267c-0.27143,0.44844 -0.51925,1.0267 -0.74347,1.73477c-0.22422,0.70807 -0.41009,1.5607 -0.5576,2.5579c-0.14751,0.9972 -0.22127,2.15666 -0.22127,3.47839c0,1.30993 0.06786,2.45169 0.20357,3.42528c0.13571,0.97359 0.30093,1.80263 0.49565,2.48709c0.19472,0.68447 0.40714,1.23322 0.63726,1.64626c0.23012,0.41304 0.43369,0.72577 0.61071,0.93819c0.24782,0.28323 0.56941,0.5576 0.96474,0.82313c0.39534,0.26553 0.85853,0.4986 1.38959,0.69922c0.53105,0.20062 1.12406,0.36289 1.77902,0.4868c0.65496,0.12391 1.37188,0.18587 2.15076,0.18587c0.79068,0 1.5017,-0.06196 2.13306,-0.18587c0.63136,-0.12391 1.18012,-0.27438 1.64626,-0.45139c0.46615,-0.17702 0.85263,-0.36289 1.15946,-0.5576c0.30683,-0.19472 0.53105,-0.36289 0.67267,-0.5045c0.07081,-0.07081 0.17407,-0.19472 0.30978,-0.37174c0.13571,-0.17702 0.28323,-0.41599 0.44254,-0.71692c0.15932,-0.30093 0.32158,-0.66677 0.4868,-1.09751c0.16522,-0.43074 0.31273,-0.94114 0.44254,-1.5312L153.3471,136.53841z"></path>
      <polygon points="155.61,117 174.52,117 174.52,119.54 166.59,119.54 166.59,142.52 163.53,142.52 163.53,119.54 155.61,119.54 155.61,117"></polygon>
      <path x="0" y="0" d="M188.48503,119.06681c-0.89689,0 -1.70527,0.07081 -2.42514,0.21242c-0.71987,0.14161 -1.35123,0.32158 -1.89408,0.5399c-0.54285,0.21832 -1.00015,0.45729 -1.37188,0.71692c-0.37174,0.25963 -0.65201,0.50745 -0.84083,0.74347c-0.20062,0.24782 -0.40714,0.57531 -0.61956,0.98245c-0.21242,0.40714 -0.40714,0.94114 -0.58416,1.60201c-0.17702,0.66086 -0.32453,1.46924 -0.44254,2.42514c-0.11801,0.95589 -0.17702,2.10651 -0.17702,3.45184c0,1.38073 0.05901,2.56085 0.17702,3.54035c0.11801,0.9795 0.26848,1.80558 0.45139,2.47824c0.18292,0.67267 0.38059,1.21552 0.59301,1.62856c0.21242,0.41304 0.41894,0.73757 0.61956,0.97359c0.18882,0.23602 0.46615,0.48385 0.83198,0.74347c0.36584,0.25963 0.82018,0.49565 1.36303,0.70807c0.54285,0.21242 1.16831,0.38944 1.87638,0.53105c0.70807,0.14161 1.50465,0.21242 2.38973,0.21242c0.88509,0 1.68756,-0.07081 2.40743,-0.21242c0.71987,-0.14161 1.35123,-0.32158 1.89408,-0.5399c0.54285,-0.21832 0.9972,-0.45729 1.36303,-0.71692c0.36584,-0.25963 0.64906,-0.51335 0.84968,-0.76117c0.18882,-0.24782 0.39239,-0.57826 0.61071,-0.9913c0.21832,-0.41304 0.41894,-0.96179 0.60186,-1.64626c0.18292,-0.68447 0.33338,-1.52235 0.45139,-2.51365c0.11801,-0.9913 0.17702,-2.18321 0.17702,-3.57575c0,-1.32173 -0.05901,-2.45464 -0.17702,-3.39873c-0.11801,-0.94409 -0.26848,-1.74362 -0.45139,-2.39858c-0.18292,-0.65496 -0.38059,-1.18307 -0.59301,-1.5843c-0.21242,-0.40124 -0.41304,-0.71987 -0.60186,-0.95589c-0.18882,-0.23602 -0.46615,-0.48385 -0.83198,-0.74347c-0.36584,-0.25963 -0.82018,-0.49565 -1.36303,-0.70807c-0.54285,-0.21242 -1.17126,-0.38944 -1.88523,-0.53105c-0.71397,-0.14161 -1.5135,-0.21242 -2.39858,-0.21242z M176.9612,129.63474c0,-1.53415 0.09146,-2.86473 0.27438,-3.99174c0.18292,-1.12701 0.41009,-2.0888 0.68152,-2.88538c0.27143,-0.79658 0.56646,-1.44859 0.88509,-1.95604c0.31863,-0.50745 0.61366,-0.91459 0.88509,-1.22142c0.27143,-0.29503 0.64611,-0.62546 1.12406,-0.9913c0.47795,-0.36584 1.0739,-0.70807 1.78787,-1.0267c0.71397,-0.31863 1.55775,-0.58416 2.53135,-0.79658c0.97359,-0.21242 2.09175,-0.31863 3.35448,-0.31863c1.26272,0 2.37793,0.10916 3.34563,0.32748c0.96769,0.21832 1.80853,0.4868 2.5225,0.80543c0.71397,0.31863 1.30993,0.66086 1.78787,1.0267c0.47795,0.36584 0.85263,0.69627 1.12406,0.9913c0.27143,0.30683 0.5635,0.71102 0.87624,1.21257c0.31273,0.50155 0.60481,1.15061 0.87624,1.94719c0.27143,0.79658 0.49565,1.75542 0.67267,2.87653c0.17702,1.12111 0.26553,2.44874 0.26553,3.98289c0,1.75837 -0.10916,3.26302 -0.32748,4.51394c-0.21832,1.25092 -0.48975,2.30122 -0.81428,3.15091c-0.32453,0.84968 -0.67857,1.52825 -1.0621,2.0357c-0.38354,0.50745 -0.73462,0.89689 -1.05325,1.16831c-0.31863,0.27143 -0.72577,0.5635 -1.22142,0.87624c-0.49565,0.31273 -1.08276,0.60481 -1.76132,0.87624c-0.67857,0.27143 -1.45744,0.49565 -2.33663,0.67267c-0.87919,0.17702 -1.86163,0.26553 -2.94734,0.26553c-1.27452,0 -2.39858,-0.10621 -3.37218,-0.31863c-0.97359,-0.21242 -1.81738,-0.47795 -2.53135,-0.79658c-0.71397,-0.31863 -1.30698,-0.66086 -1.77902,-1.0267c-0.47205,-0.36584 -0.84378,-0.70217 -1.11521,-1.009c-0.27143,-0.30683 -0.5635,-0.71987 -0.87624,-1.23912c-0.31273,-0.51925 -0.60186,-1.19192 -0.86738,-2.018c-0.26553,-0.82608 -0.4868,-1.82033 -0.66381,-2.98274c-0.17702,-1.16241 -0.26553,-2.5461 -0.26553,-4.15105z"></path>
      <path d="M209.00133,116.99571L224.87978,116.99571L225.25151,119.93419c-0.23602,0.30683 -0.56055,0.74642 -0.97359,1.31878c-0.41304,0.57236 -0.89099,1.24502 -1.43384,2.018c-0.54285,0.77298 -1.13881,1.61971 -1.78787,2.5402c-0.64906,0.92049 -1.31878,1.87638 -2.00915,2.86768c-0.69037,0.9913 -1.39254,2.0003 -2.10651,3.027c-0.71397,1.0267 -1.41024,2.0298 -2.0888,3.00929c-0.67857,0.9795 -1.32763,1.91769 -1.94719,2.81457c-0.61956,0.89689 -1.18307,1.70527 -1.69051,2.42514L225.69406,139.95484L225.69406,142.50389L207.86842,142.50389L207.16035,140.69832c0.75527,-1.0149 1.59021,-2.15076 2.50479,-3.40758c0.91459,-1.25682 1.85278,-2.56085 2.81457,-3.91208c0.96179,-1.35123 1.92654,-2.70836 2.89423,-4.0714c0.96769,-1.36303 1.87933,-2.65821 2.73492,-3.88553c0.85558,-1.22732 1.63741,-2.34843 2.34548,-3.36333c0.70807,-1.0149 1.28633,-1.85278 1.73477,-2.51365L209.00133,119.54475L209.00133,116.99571z"></path>
      <path x="0" y="0" d="M240.72282,119.06681c-0.89689,0 -1.70527,0.07081 -2.42514,0.21242c-0.71987,0.14161 -1.35123,0.32158 -1.89408,0.5399c-0.54285,0.21832 -1.00015,0.45729 -1.37188,0.71692c-0.37174,0.25963 -0.65201,0.50745 -0.84083,0.74347c-0.20062,0.24782 -0.40714,0.57531 -0.61956,0.98245c-0.21242,0.40714 -0.40714,0.94114 -0.58416,1.60201c-0.17702,0.66086 -0.32453,1.46924 -0.44254,2.42514c-0.11801,0.95589 -0.17702,2.10651 -0.17702,3.45184c0,1.38073 0.05901,2.56085 0.17702,3.54035c0.11801,0.9795 0.26848,1.80558 0.45139,2.47824c0.18292,0.67267 0.38059,1.21552 0.59301,1.62856c0.21242,0.41304 0.41894,0.73757 0.61956,0.97359c0.18882,0.23602 0.46615,0.48385 0.83198,0.74347c0.36584,0.25963 0.82018,0.49565 1.36303,0.70807c0.54285,0.21242 1.16831,0.38944 1.87638,0.53105c0.70807,0.14161 1.50465,0.21242 2.38973,0.21242c0.88509,0 1.68756,-0.07081 2.40743,-0.21242c0.71987,-0.14161 1.35123,-0.32158 1.89408,-0.5399c0.54285,-0.21832 0.9972,-0.45729 1.36303,-0.71692c0.36584,-0.25963 0.64906,-0.51335 0.84968,-0.76117c0.18882,-0.24782 0.39239,-0.57826 0.61071,-0.9913c0.21832,-0.41304 0.41894,-0.96179 0.60186,-1.64626c0.18292,-0.68447 0.33338,-1.52235 0.45139,-2.51365c0.11801,-0.9913 0.17702,-2.18321 0.17702,-3.57575c0,-1.32173 -0.05901,-2.45464 -0.17702,-3.39873c-0.11801,-0.94409 -0.26848,-1.74362 -0.45139,-2.39858c-0.18292,-0.65496 -0.38059,-1.18307 -0.59301,-1.5843c-0.21242,-0.40124 -0.41304,-0.71987 -0.60186,-0.95589c-0.18882,-0.23602 -0.46615,-0.48385 -0.83198,-0.74347c-0.36584,-0.25963 -0.82018,-0.49565 -1.36303,-0.70807c-0.54285,-0.21242 -1.17126,-0.38944 -1.88523,-0.53105c-0.71397,-0.14161 -1.5135,-0.21242 -2.39858,-0.21242z M229.199,129.63474c0,-1.53415 0.09146,-2.86473 0.27438,-3.99174c0.18292,-1.12701 0.41009,-2.0888 0.68152,-2.88538c0.27143,-0.79658 0.56646,-1.44859 0.88509,-1.95604c0.31863,-0.50745 0.61366,-0.91459 0.88509,-1.22142c0.27143,-0.29503 0.64611,-0.62546 1.12406,-0.9913c0.47795,-0.36584 1.0739,-0.70807 1.78787,-1.0267c0.71397,-0.31863 1.55775,-0.58416 2.53135,-0.79658c0.97359,-0.21242 2.09175,-0.31863 3.35448,-0.31863c1.26272,0 2.37793,0.10916 3.34563,0.32748c0.96769,0.21832 1.80853,0.4868 2.5225,0.80543c0.71397,0.31863 1.30993,0.66086 1.78787,1.0267c0.47795,0.36584 0.85263,0.69627 1.12406,0.9913c0.27143,0.30683 0.5635,0.71102 0.87624,1.21257c0.31273,0.50155 0.60481,1.15061 0.87624,1.94719c0.27143,0.79658 0.49565,1.75542 0.67267,2.87653c0.17702,1.12111 0.26553,2.44874 0.26553,3.98289c0,1.75837 -0.10916,3.26302 -0.32748,4.51394c-0.21832,1.25092 -0.48975,2.30122 -0.81428,3.15091c-0.32453,0.84968 -0.67857,1.52825 -1.0621,2.0357c-0.38354,0.50745 -0.73462,0.89689 -1.05325,1.16831c-0.31863,0.27143 -0.72577,0.5635 -1.22142,0.87624c-0.49565,0.31273 -1.08276,0.60481 -1.76132,0.87624c-0.67857,0.27143 -1.45744,0.49565 -2.33663,0.67267c-0.87919,0.17702 -1.86163,0.26553 -2.94734,0.26553c-1.27452,0 -2.39858,-0.10621 -3.37218,-0.31863c-0.97359,-0.21242 -1.81738,-0.47795 -2.53135,-0.79658c-0.71397,-0.31863 -1.30698,-0.66086 -1.77902,-1.0267c-0.47205,-0.36584 -0.84378,-0.70217 -1.11521,-1.009c-0.27143,-0.30683 -0.5635,-0.71987 -0.87624,-1.23912c-0.31273,-0.51925 -0.60186,-1.19192 -0.86738,-2.018c-0.26553,-0.82608 -0.4868,-1.82033 -0.66381,-2.98274c-0.17702,-1.16241 -0.26553,-2.5461 -0.26553,-4.15105z"></path>
      <polygon points="257.73,117 261.58,117 272.32,133.18 275.7,138.56 275.7,117 278.57,117 278.57,142.5 275.05,142.5 263.81,125.46 260.58,120.38 260.58,142.5 257.73,142.5 257.73,117"></polygon>
      <path x="0" y="0" d="M293.70409,118.9783L288.65909,133.61763L298.66057,133.61763z M291.91621,116.99571L295.47426,116.99571L305.05089,142.50389L301.93539,142.50389L299.52795,136.00736L287.80941,136.00736L285.41968,142.50389L282.28647,142.50389L291.91621,116.99571z"></path>
      <path d="M311.49432,139.70702L312.66263,137.17567c0.17702,0.44844 0.5045,0.87329 0.98245,1.27452c0.47795,0.40124 1.05915,0.75527 1.74362,1.0621c0.68447,0.30683 1.44859,0.5517 2.29237,0.73462c0.84378,0.18292 1.72592,0.27438 2.64641,0.27438c0.94409,0 1.76132,-0.09146 2.45169,-0.27438c0.69037,-0.18292 1.27157,-0.44549 1.74362,-0.78773c0.56646,-0.42484 0.98245,-0.96179 1.24797,-1.61086c0.26553,-0.64906 0.39829,-1.39844 0.39829,-2.24812c0,-0.74347 -0.08556,-1.37778 -0.25668,-1.90294c-0.17112,-0.52515 -0.45729,-0.97359 -0.85853,-1.34533c-0.40124,-0.37174 -0.92344,-0.69037 -1.5666,-0.95589c-0.64316,-0.26553 -1.43679,-0.5104 -2.38088,-0.73462c-0.74347,-0.17702 -1.44269,-0.34518 -2.09765,-0.5045c-0.65496,-0.15932 -1.26862,-0.32748 -1.84098,-0.5045c-0.57236,-0.17702 -1.11226,-0.38059 -1.61971,-0.61071c-0.50745,-0.23012 -0.9913,-0.5104 -1.45154,-0.84083c-0.81428,-0.62546 -1.40729,-1.35123 -1.77902,-2.17731c-0.37174,-0.82608 -0.5576,-1.77607 -0.5576,-2.84998c0,-1.0149 0.15341,-1.92359 0.46024,-2.72607c0.30683,-0.80248 0.74937,-1.48104 1.32763,-2.0357c0.74347,-0.68447 1.70527,-1.22142 2.88538,-1.61086c0.87329,-0.29503 2.21272,-0.44254 4.01829,-0.44254c1.39254,0 2.44284,0.08851 3.15091,0.26553c0.89689,0.21242 1.65511,0.48975 2.27467,0.83198c0.61956,0.34223 1.11226,0.66677 1.47809,0.97359c0.36584,0.30683 0.61956,0.54285 0.76117,0.70807L327.08954,121.82828c-0.12981,-0.18882 -0.36289,-0.45434 -0.69922,-0.79658c-0.33633,-0.34223 -0.78773,-0.66677 -1.35418,-0.97359c-0.36584,-0.18882 -1.0444,-0.44254 -2.0357,-0.76117c-0.48385,-0.16522 -1.39254,-0.24782 -2.72607,-0.24782c-1.28633,0 -2.24222,0.10031 -2.86768,0.30093c-0.77888,0.23602 -1.38664,0.63136 -1.82328,1.18602c-0.49565,0.62546 -0.74347,1.48104 -0.74347,2.56675c0,0.69627 0.13276,1.27452 0.39829,1.73477c0.26553,0.46024 0.64611,0.84968 1.14176,1.16831c0.49565,0.31863 1.09456,0.58416 1.79673,0.79658c0.70217,0.21242 1.4899,0.41894 2.36318,0.61956c0.86148,0.21242 1.67576,0.42189 2.44284,0.62841c0.76707,0.20652 1.47809,0.44549 2.13306,0.71692c0.65496,0.27143 1.24207,0.59006 1.76132,0.95589c0.51925,0.36584 0.96474,0.81133 1.33648,1.33648c0.37174,0.52515 0.65496,1.14766 0.84968,1.86753c0.19472,0.71987 0.29208,1.56365 0.29208,2.53135c0,1.42794 -0.24782,2.66706 -0.74347,3.71736c-0.49565,1.0503 -1.26272,1.90589 -2.30122,2.56675c-1.52235,0.96769 -3.61705,1.45154 -6.28411,1.45154c-1.08571,0 -2.09175,-0.08851 -3.01814,-0.26553c-0.92639,-0.17702 -1.75542,-0.41894 -2.48709,-0.72577c-0.73167,-0.30683 -1.35418,-0.67562 -1.86753,-1.10636c-0.51335,-0.43074 -0.89984,-0.89394 -1.15946,-1.38959z"></path>
      <path d="M351.60643,116.99571L354.68653,116.99571L354.68653,130.32511c0,1.66396 -0.07966,3.1037 -0.23897,4.31922c-0.15932,1.21552 -0.36289,2.24812 -0.61071,3.0978c-0.24782,0.84968 -0.52515,1.5312 -0.83198,2.04455c-0.30683,0.51335 -0.61366,0.90574 -0.92049,1.17716c-0.22422,0.20062 -0.5458,0.43664 -0.96474,0.70807c-0.41894,0.27143 -0.94409,0.53105 -1.57545,0.77888c-0.63136,0.24782 -1.37188,0.46024 -2.22157,0.63726c-0.84968,0.17702 -1.81738,0.26553 -2.90308,0.26553c-1.08571,0 -2.0593,-0.08851 -2.92078,-0.26553c-0.86148,-0.17702 -1.61676,-0.38944 -2.26582,-0.63726c-0.64906,-0.24782 -1.18897,-0.50745 -1.61971,-0.77888c-0.43074,-0.27143 -0.75822,-0.50745 -0.98245,-0.70807c-0.31863,-0.28323 -0.62546,-0.68152 -0.92049,-1.19487c-0.29503,-0.51335 -0.5576,-1.18602 -0.78773,-2.018c-0.23012,-0.83198 -0.41304,-1.84098 -0.54875,-3.027c-0.13571,-1.18602 -0.20357,-2.5992 -0.20357,-4.23956L334.17023,116.99571L337.25033,116.99571L337.25033,130.41361c0,1.26272 0.0413,2.36613 0.12391,3.31022c0.08261,0.94409 0.18882,1.74952 0.31863,2.41629c0.12981,0.66677 0.27438,1.20667 0.43369,1.61971c0.15932,0.41304 0.30978,0.71987 0.45139,0.92049c0.14161,0.20062 0.35994,0.42189 0.65496,0.66381c0.29503,0.24192 0.68152,0.46615 1.15946,0.67267c0.47795,0.20652 1.05325,0.38059 1.72592,0.5222c0.67267,0.14161 1.46334,0.21242 2.37203,0.21242c0.87329,0 1.64331,-0.06491 2.31008,-0.19472c0.66677,-0.12981 1.23912,-0.29798 1.71707,-0.5045c0.47795,-0.20652 0.86738,-0.43074 1.16831,-0.67267c0.30093,-0.24192 0.5222,-0.475 0.66381,-0.69922c0.08261,-0.12981 0.19767,-0.35403 0.34518,-0.67267c0.14751,-0.31863 0.28618,-0.75822 0.41599,-1.31878c0.12981,-0.56055 0.24487,-1.26567 0.34518,-2.11536c0.10031,-0.84968 0.15046,-1.87048 0.15046,-3.0624L351.60643,116.99571z"></path>
      <path x="0" y="0" d="M375.22053,127.58134c0.36584,-0.40124 0.60481,-0.89984 0.71692,-1.4958c0.11211,-0.59596 0.16817,-1.30108 0.16817,-2.11536c0,-0.83788 -0.07966,-1.543 -0.23897,-2.11536c-0.15932,-0.57236 -0.44549,-1.02965 -0.85853,-1.37188c-0.49565,-0.41304 -1.17716,-0.67857 -2.04455,-0.79658c-0.86738,-0.11801 -1.95014,-0.17702 -3.24827,-0.17702L364.28087,119.50935L364.28087,128.78506L369.18425,128.78506c0.40124,0 0.79068,0 1.16831,0c0.37764,0 0.73757,-0.0059 1.07981,-0.0177c0.90869,-0.0236 1.66691,-0.12981 2.27467,-0.31863c0.60776,-0.18882 1.11226,-0.47795 1.5135,-0.86738z M361.20077,116.99571L369.07804,116.99571c0.55465,0 1.09161,0.0059 1.61086,0.0177c0.51925,0.0118 1.0267,0.0295 1.52235,0.05311c1.0031,0.05901 1.91474,0.19767 2.73492,0.41599c0.82018,0.21832 1.5194,0.5517 2.09765,1.00015c0.76707,0.57826 1.32763,1.32763 1.68166,2.24812c0.35403,0.92049 0.53105,1.99439 0.53105,3.22171c0,1.35713 -0.15341,2.49889 -0.46024,3.42528c-0.30683,0.92639 -0.82018,1.67281 -1.54005,2.23927c-0.55465,0.41304 -1.23322,0.73167 -2.0357,0.95589c-0.80248,0.22422 -1.74067,0.37174 -2.81457,0.44254c0.29503,0.21242 0.59596,0.47205 0.90279,0.77888c0.27143,0.25963 0.56055,0.57236 0.86738,0.93819c0.30683,0.36584 0.60776,0.78478 0.90279,1.25682L380,142.14986L377.30934,143.22966c-0.80248,-1.33353 -1.5784,-2.63166 -2.32778,-3.89438c-0.74937,-1.26272 -1.45449,-2.42514 -2.11536,-3.48724c-0.66086,-1.0621 -1.26567,-1.98554 -1.81443,-2.77032c-0.54875,-0.78478 -1.01785,-1.37188 -1.40729,-1.76132L364.28087,131.3164L364.28087,142.50389L361.20077,142.50389L361.20077,116.99571z"></path>
    </g>
  </g>
  <g></g>
</g>
</svg>